<svg width="128" height="128" viewBox="0 0 128 128" fill="none" xmlns="http://www.w3.org/2000/svg">
  <rect width="128" height="128" rx="64" fill="#F77FBE"/>
  <path d="M86.5 50C86.5 61.598 76.8223 71 64.5 71C52.1777 71 42.5 61.598 42.5 50C42.5 38.402 52.1777 29 64.5 29C76.8223 29 86.5 38.402 86.5 50Z" fill="white"/>
  <path d="M64.5 98C75.8218 98 85 90.8366 85 82C85 73.1634 75.8218 66 64.5 66C53.1782 66 44 73.1634 44 82C44 90.8366 53.1782 98 64.5 98Z" fill="white"/>
  <circle cx="54" cy="44" r="4" fill="#F77FBE"/>
  <circle cx="75" cy="44" r="4" fill="#F77FBE"/>
  <path d="M59 55C59 57.2091 61.6863 60 65 60C68.3137 60 71 57.2091 71 55" stroke="#F77FBE" stroke-width="2.5" stroke-linecap="round"/>
</svg>